<svg width="48" height="48" viewBox="0 0 48 48" fill="none" xmlns="http://www.w3.org/2000/svg">
<path fill-rule="evenodd" clip-rule="evenodd" d="M24 0C10.7452 0 0 10.7452 0 24C0 37.2548 10.7452 48 24 48C37.2548 48 48 37.2548 48 24C48 10.7452 37.2548 0 24 0ZM28.2899 13.0015C30.4337 13.3577 32.4842 13.9796 34.3963 14.8237C34.4128 14.8306 34.427 14.842 34.4353 14.858C37.8231 19.6523 39.4963 25.0604 38.8708 31.2864C38.8685 31.3127 38.8543 31.3368 38.8318 31.3528C36.2658 33.1658 33.7802 34.2664 31.3289 34.996C31.2898 35.0075 31.2473 34.9937 31.2236 34.9616C30.6572 34.2034 30.1428 33.404 29.6923 32.5645C29.6663 32.5153 29.6899 32.4557 29.7431 32.4362C30.5602 32.1396 31.3372 31.7845 32.0845 31.3642C32.1436 31.331 32.1472 31.2497 32.0928 31.2107C31.9343 31.0974 31.7771 30.9783 31.6268 30.8591C31.5985 30.8374 31.5606 30.8328 31.5287 30.8477C26.6769 33.0043 21.3616 33.0043 16.4519 30.8477C16.42 30.8339 16.3821 30.8385 16.3549 30.8603C16.2048 30.9794 16.0475 31.0974 15.8902 31.2107C15.8358 31.2497 15.8405 31.331 15.8997 31.3642C16.647 31.7765 17.4239 32.1396 18.2398 32.4374C18.293 32.4569 18.3179 32.5153 18.2918 32.5645C17.8508 33.4052 17.3364 34.2046 16.7594 34.9628C16.7345 34.9937 16.6931 35.0075 16.6541 34.996C14.2146 34.2664 11.729 33.1658 9.163 31.3528C9.14171 31.3368 9.12634 31.3116 9.12397 31.2852C8.60131 25.9 9.66674 20.4471 13.556 14.8569C13.5654 14.842 13.5796 14.8306 13.5962 14.8237C15.5095 13.9784 17.5599 13.3565 19.7026 13.0015C19.7416 12.9958 19.7806 13.0129 19.8007 13.0462C20.0656 13.4974 20.3683 14.0758 20.5729 14.5488C22.8315 14.2167 25.1255 14.2167 27.4314 14.5488C27.6359 14.0861 27.928 13.4974 28.1917 13.0462C28.2118 13.0118 28.2508 12.9946 28.2899 13.0015ZM16.3289 25.0971C16.3289 26.7005 17.5469 28.0062 19.025 28.0062C20.5268 28.0062 21.7211 26.7005 21.7211 25.0971C21.7448 23.5051 20.5386 22.188 19.025 22.188C17.5233 22.188 16.3289 23.4937 16.3289 25.0971ZM26.2974 25.0971C26.2974 26.7005 27.5153 28.0062 28.9934 28.0062C30.507 28.0062 31.6896 26.7005 31.6896 25.0971C31.7132 23.5051 30.507 22.188 28.9934 22.188C27.4917 22.188 26.2974 23.4937 26.2974 25.0971Z" fill="white"/>
</svg>
