<svg width="48" height="48" viewBox="0 0 48 48" fill="none" xmlns="http://www.w3.org/2000/svg">
<path fill-rule="evenodd" clip-rule="evenodd" d="M24 0C10.7452 0 0 10.7452 0 24C0 37.2548 10.7452 48 24 48C37.2548 48 48 37.2548 48 24C48 10.7452 37.2548 0 24 0ZM23.9996 16.6399C26.2531 16.6399 27.7731 17.6133 28.6398 18.4266L32.0266 15.1199C29.9465 13.1865 27.2398 11.9998 23.9996 11.9998C19.3062 11.9998 15.2527 14.6932 13.2793 18.6133L13.2797 18.6136C12.4666 20.2402 12 22.0667 12 23.9999C12 25.9333 12.4667 27.76 13.28 29.3867L17.0549 26.465L13.293 29.3867C15.2664 33.3069 19.3065 36.0003 24 36.0003C27.2401 36.0003 29.9601 34.9336 31.9469 33.0936L31.9469 33.0936C34.2137 31.0002 35.5204 27.9201 35.5204 24.2666C35.5204 23.2799 35.4404 22.5599 35.267 21.8132H24V26.2667H30.6135C30.4802 27.3734 29.7602 29.0401 28.1602 30.1601L28.1601 30.1601C27.1468 30.8668 25.7867 31.3601 24 31.3601C20.8266 31.3601 18.1333 29.2668 17.1732 26.3735L17.1735 26.3733C16.9202 25.6266 16.7735 24.8266 16.7735 23.9999C16.7735 23.1732 16.9202 22.3732 17.1602 21.6265L17.1596 21.6261C18.1332 18.733 20.8265 16.6399 23.9996 16.6399Z" fill="white"/>
</svg>
