<svg id="Слой_1" data-name="Слой 1" xmlns="http://www.w3.org/2000/svg" xmlns:xlink="http://www.w3.org/1999/xlink" viewBox="0 0 1000 1000"><defs><style>.cls-1{fill:url(#Безымянный_градиент_19);}.cls-2{fill:url(#Безымянный_градиент_17);}</style><linearGradient id="Безымянный_градиент_19" x1="461.49" y1="778.05" x2="763.94" y2="388.35" gradientUnits="userSpaceOnUse"><stop offset="0" stop-color="#009fe3"/><stop offset="0.47" stop-color="#019de1"/><stop offset="0.63" stop-color="#0596dc"/><stop offset="0.75" stop-color="#0c8bd1"/><stop offset="0.85" stop-color="#177ac3"/><stop offset="0.93" stop-color="#2464b0"/><stop offset="1" stop-color="#334b9b"/></linearGradient><linearGradient id="Безымянный_градиент_17" x1="200.08" y1="573.13" x2="527.5" y2="193.35" gradientUnits="userSpaceOnUse"><stop offset="0" stop-color="#e20814"/><stop offset="0.04" stop-color="#e51f16"/><stop offset="0.09" stop-color="#e93e1a"/><stop offset="0.16" stop-color="#ec5a1d"/><stop offset="0.23" stop-color="#ef701f"/><stop offset="0.32" stop-color="#f18121"/><stop offset="0.43" stop-color="#f38c22"/><stop offset="0.58" stop-color="#f49323"/><stop offset="1" stop-color="#f49523"/></linearGradient></defs><path class="cls-1" d="M788.34,445.59c37.82-75.86,21.14-139.44-43.28-165.47-16.94-6.85-37.29-9.19-57.44-5.74l-.32.18c5.29,3.17,10.2,6.1,15.09,9.05,4,2.43,5.11,5.16,3.25,8.09s-4.76,3.28-8.74,1c-6-3.49-11.95-7.06-18-10.44-1.1-.62-3-1.11-3.88-.6-11,6.18-22,12.56-33.48,19.2,7.44,4.36,14.39,8.45,21.35,12.52,3.57,2.08,7.25,4,10.71,6.27,2.11,1.38,3.72,1.19,5.79-.08,5.79-3.58,11.7-7,17.59-10.37,4-2.31,7-1.91,8.73,1s.73,5.65-3.32,8.1l-15.08,9c6.37,3.68,12.26,7.05,18.12,10.48,4,2.33,5.09,5.14,3.33,8.11s-5,3.42-8.77,1.24c-5.89-3.38-11.73-6.85-18.51-10.82,0,6,0,11.4,0,16.77,0,5.79-1.94,8.62-5.59,8.47s-5.3-2.84-5.2-8.81c.1-6.56.28-13.11.27-19.66,0-1.16-.46-2.9-1.29-3.39-10.88-6.46-21.86-12.75-32.92-19.15-.34.59-.67.91-.67,1.23,0,12.3-.12,24.6,0,36.9a5.16,5.16,0,0,0,2.35,3.54c6.3,3.75,12.89,7.05,19.06,11a7.37,7.37,0,0,1,2.88,5.82c-.18,1.6-2.64,3.38-4.48,4.2-1.09.49-3.06-.5-4.42-1.23-4.92-2.63-9.76-5.43-15.5-8.66v10c0,3.48-.18,7,0,10.43a7.64,7.64,0,0,1-3.45,7.48h-4c-2.64-2-3.43-4.68-3.31-8,.23-6.51.07-13,.07-20.24-5.84,3.28-11.11,6.32-16.46,9.22-3.52,1.92-6.39,1.31-8-1.47s-.83-5.83,2.46-7.74c6.47-3.76,13-7.32,19.48-11.12,1.08-.63,2.39-2.05,2.41-3.12.16-12.55.1-25.11.1-38.37l-.41.23c-11.53,14.08-20.56,32.41-25.4,55.66C523.31,358,472.49,413.67,474,478.48c-35.79,6.26-64,24.11-80.78,57.23-17,33.51-14.39,67.21,0,96.89-16,14.86-32.87,26.18-43.89,41.67-32.74,45.94-23.54,106.6,19.16,141.82,42.25,34.89,102.67,30.59,143-9.81,3.51-3.51,8.73-7.77,13-7.65a107.19,107.19,0,0,0,46.15-8.45l14.76-44.28c.06-.18.09-.37.18-.73H558.8a4.1,4.1,0,0,1-3-1A3.47,3.47,0,0,1,555,740q3.36-8.13,6.76-16.27,7.39-17.76,14.79-35.52,6.29-15.09,12.6-30.16c.56-1.33,1.12-2.67,1.61-4a4.59,4.59,0,0,1,2.74-2.76h36a4.51,4.51,0,0,1,2.41,2,3.73,3.73,0,0,1,0,3.15q-6.58,14.75-13.16,29.49-7.41,16.55-14.83,33.07c-.12.26-.22.54-.37.91h5.31c7.12,0,14.25,0,21.37,0a3.56,3.56,0,0,1,3.8,3.91,4.44,4.44,0,0,1-.71,1.91q-8.42,12.88-16.87,25.75-4.62,7-9.23,14.06c45.46,25,90.13,24.35,128.64-10.53,40.07-36.26,44.71-82,22.22-130.33C828.16,591.44,846.29,504.75,788.34,445.59Z"/><path class="cls-2" d="M481.92,160.44c-85.11-2.13-159.17,27.35-219.15,87.26-39.46,39.4-65.74,85-78.51,136,5.56,12.12,11.36,23.83,16.16,35.27,4.69,11.16,8.84,22.54,13,33.92,4.51,12.41,2.25,23.9-7.16,33-8.41,8.12-18.4,11-29.16,8.15,7.24,67.84,35.8,127.54,85.58,176.58a316.53,316.53,0,0,0,38.79,32.58,4.74,4.74,0,0,0,7.36-3,107.83,107.83,0,0,1,18.12-41.69c10.64-15,26.63-26.1,42.14-40.11a4.82,4.82,0,0,0,1.11-5.56c-13.38-29.46-15.3-62.62,1.45-95.59,16.54-32.56,43.84-50.64,78.48-57.62a4.78,4.78,0,0,0,3.85-4.67c.53-55.42,38.63-103.38,97.82-110.33.35-2.23.55-4.54,3.34-6.25,3-1.82,6-3.5,9-5.25l9.56-5.6c-5.53-3.3-10.65-6.27-15.67-9.42-1.28-.81-3-2.07-3.14-3.29-.23-1.9.07-4.9,1.28-5.69a7.63,7.63,0,0,1,6.51-.42c6.41,3.28,12.55,7.09,18.68,10.89,2.15,1.34,3.76,1.58,6.1.18.83-.5,1.68-1,2.52-1.48a120.34,120.34,0,0,1,14.61-26.23c-5.93-3.4-11.87-6.79-17.84-10.1a5.5,5.5,0,0,0-4.51,0c-6.31,3.47-12.45,7.26-18.68,10.89-3.69,2.15-6.75,1.73-8.49-1-1.88-3-.84-5.8,3-8.15,5-3,10-6.07,15.57-9.42-6.22-3.63-12-7.08-17.92-10.43-2.49-1.42-4.43-3.13-3.91-6.28.68-4.16,4.52-5.68,8.68-3.38,5.93,3.29,11.78,6.72,18.64,10.65,0-6.86-.06-12.93,0-19,0-2.84,1.5-5.27,4.38-5.3,1.91,0,4.1,1.32,5.64,2.66.84.73.79,2.72.79,4.15,0,6.95-.16,13.91-.11,20.86,0,1.17.43,2.92,1.24,3.41,6.72,4,13.49,7.92,20.42,11.92a103.24,103.24,0,0,1,13.78-12.65q0-8.38.07-16.79a4.54,4.54,0,0,0-2.76-4.66c-6.24-3.35-12.37-6.87-18.51-10.38-3.81-2.18-5-5.24-3.28-8.16s4.44-3.29,8.37-1.16c5,2.73,10.07,5.5,15.1,8.25a4.79,4.79,0,0,0,1,0c0-6.41.17-12.86-.07-19.3-.13-3.34.74-6,3.31-8h4c2.61,1.83,3.57,4.27,3.46,7.5-.2,6.49-.06,13-.06,20.29,5.82-3.27,11-6.23,16.2-9.07,3.57-1.94,6.83-1.11,8.09,2.06s-.09,5.66-3,7.32c-6.27,3.55-12.57,7.05-18.74,10.78a5.2,5.2,0,0,0-2.42,3.52c-.05,3.54-.05,7.1-.06,10.65A106.64,106.64,0,0,1,670.7,251l-.06-4.18c0-3.08,1-5.6,4.25-6.41a5,5,0,0,1,3.63.38C627.93,192.27,560.52,162.43,481.92,160.44ZM276,416.2c-9.78,9.44-21.69,11.84-34.46,6.32-12.23-5.29-18.93-15.39-18.35-28.21.41-9.06,3.83-18.27,7.29-26.86,6.8-16.87,14.55-33.35,21.93-50a30.41,30.41,0,0,1,1.92-2.94c5.57,12.13,11,23.31,15.85,34.77,4.68,11.15,8.83,22.54,13,33.92C287.61,395.63,285.35,407.12,276,416.2Zm69.7,69.71c-9.77,9.44-21.69,11.84-34.45,6.32-12.24-5.29-18.94-15.4-18.35-28.21.41-9.07,3.83-18.28,7.29-26.87,6.79-16.87,14.55-33.35,21.93-50a27.84,27.84,0,0,1,1.92-2.94c5.56,12.14,11,23.32,15.84,34.77,4.69,11.16,8.84,22.54,13,33.92C357.31,465.33,355.06,476.82,345.65,485.91Z"/></svg>